<svg xmlns="http://www.w3.org/2000/svg" version="1.2" baseProfile="tiny" width="145.92" height="43.52" viewBox="43 83 114 34"><path d="m 150,90 0,20 m -10,-10 10,0 m -97,-10 84,0 c 1.662,0 3,1.338 3,3 l 0,14 c 0,1.662 -1.338,3 -3,3 l -84,0 c -1.662,0 -3,-1.338 -3,-3 l 0,-14 c 0,-1.662 1.338,-3 3,-3 z" stroke-width="9" stroke-linecap="round" stroke-linejoin="round" stroke="#f8fafc" fill="none" ></path><path d="m 150,90 0,20 m -10,-10 10,0 m -97,-10 84,0 c 1.662,0 3,1.338 3,3 l 0,14 c 0,1.662 -1.338,3 -3,3 l -84,0 c -1.662,0 -3,-1.338 -3,-3 l 0,-14 c 0,-1.662 1.338,-3 3,-3 z" stroke-width="3" stroke="black" fill="black" ></path></svg>
