<svg xmlns="http://www.w3.org/2000/svg" version="1.2" baseProfile="tiny" width="158.72" height="171.52" viewBox="38 23 124 134"><path d="M 155,150 C 155,50 115,30 100,30 85,30 45,50 45,150 Z" stroke-width="10" stroke-linecap="round" stroke-linejoin="round" stroke="#f8fafc" fill="none" ></path><path d="M 155,150 C 155,50 115,30 100,30 85,30 45,50 45,150" stroke-width="4" stroke="black" fill="rgb(255,161,255)" fill-opacity="1" ></path><path d="M 100,30 C 90,30 80,35 68.65625,50 l 62.6875,0 C 120,35 110,30 100,30" stroke-width="4" stroke="none" fill="black" ></path><path d="m 108,109 h 10  m -36,0 H 92  M 82,99 H 60 v 20 h 22 z  m 36,0 v 20 h 22 V 99 Z  m -26,0 v 20 h 16 V 99 Z" stroke-width="3" stroke="black" fill="none" ></path><path d="m 100,90 0,9 M 75,81 c 16,12 34,12 50,0" stroke-width="3" stroke="black" fill="none" ></path></svg>
