<svg xmlns="http://www.w3.org/2000/svg" version="1.2" baseProfile="tiny" width="209.92" height="145.92" viewBox="18 43 164 114"><path d="M25,50 l150,0 0,100 -150,0 z Z" stroke-width="10" stroke-linecap="round" stroke-linejoin="round" stroke="#f8fafc" fill="none" ></path><path d="M25,50 l150,0 0,100 -150,0 z" stroke-width="4" stroke="black" fill="rgb(128,224,255)" fill-opacity="1" ></path><path d="m 160,135 0,15 15,0 0,-15 z m -135,0 15,0 0,15 -15,0 z m 135,-85 0,15 15,0 0,-15 z m -135,0 15,0 0,15 -15,0 z" stroke-width="4" stroke="none" fill="black" ></path><path d="m 77.4,88.8 0.1,-0.3 6.1,4.9 -0.1,0.2 c -2.2,1.5 -7.7,9 -10,9 l -1.6,-0.1 5.6,-13.7 z m 7.1,3.3 c -0.4,-1.7 -5,-6.4 -6.7,-7.2 -0.4,0.3 -1.8,1 -1.8,1.6 0,0.8 0.3,1 0.5,1.5 l -5.6,14.7 h -1 c 0.2,0.9 0.5,0.7 0.5,1 0,0.3 -3,7.8 -3.3,8.7 -0.6,1.4 -1,2.7 -1.6,4.2 -0.3,0.8 -0.6,1.6 -0.9,2.2 -0.5,1.1 -0.6,0.3 -1.4,1.7 l -1.3,0.3 c 0.3,0.5 1.8,0.5 2.5,0.4 1.2,-0.2 0.4,-1 0.8,-2.2 0.7,-1.8 1.4,-3.5 2.1,-5.4 0.5,-1.2 3.7,-10.3 4.6,-10.3 h 1.3 c 0.8,0 1,0.3 1.5,0.5 l 2.3,-2.8 c 2.7,1.8 8.5,4.6 12.8,4.6 h 0.7 l 0.2,-0.1 -3.5,-5 -9.9,-0.1 6.5,-6.3 c 4.3,2.9 11.7,16.9 14.9,16.9 h 0.3 c 1.4,0 1.3,-0.6 1.8,-1.6 -0.9,-3.7 -4.8,-6.3 -7.3,-8.5 -2.4,-2 -6.1,-6.5 -8.3,-7.9 1.2,-1.7 10.3,-10.8 12.2,-11.3 l 0.9,7.7 0.1,2.9 -1.2,7.4 h -1.8 l 5.2,4.4 7.2,-3.9 c -0.5,2.1 -0.3,2.5 -2.2,3.4 -0.6,0.3 -3.7,1.9 -3.7,2.3 0,0.5 0.7,1.7 0.7,3.1 0,2.9 -3.1,4.4 -5.8,3.3 -2.1,-1 -4.9,-5.1 -5.5,-5.1 h -1 c -4.6,0 -6.7,1.6 -10.5,1.6 h -0.5 c -1.9,0 -2.5,-0.7 -4.1,-0.7 h -0.5 c -0.6,0 -1,0.4 -1,1 0,3.2 12.3,4.7 16.9,4.6 l 13.1,-0.3 v 0.3 c -0.9,1.3 -5.8,4.8 -8,4.8 -0.1,0.2 -0.5,0.7 -0.5,0.8 0,0.7 0.1,0.7 0.3,1.3 0.7,0.1 0.5,0.3 1,0.3 0.5,0 0.5,-0.2 1,-0.5 v -1.3 l 7.7,-5.4 -1.6,6.1 c -0.9,0.1 -1.3,0.4 -1.3,1.3 0,0.9 0.5,0.7 1.4,1.2 l 1.2,-1.4 c 0,-0.2 -0.7,-1.3 -0.7,-1.4 0,-1.3 2.4,-7.6 2.8,-9.5 l 15.6,-0.5 1.2,8.4 -0.4,0.1 c 0.3,0.5 0.3,1 1,1 1,0 1.1,-0.3 1.6,-0.7 -0.5,-1 -0.5,-1.9 -1.7,-1.3 l -0.8,-6.7 4.8,5.5 -0.7,0.8 1.4,1.2 c 0.5,-0.3 1,-0.2 1,-1 v -0.5 c 0,-0.9 -0.9,-1 -1.6,-1.2 l -4.5,-5 0.3,-1 h -8.5 c 0,-5 2,-8.2 2.3,-12.4 l -9.2,0.4 -0.8,2.5 h -4.6 c -1.8,0 -2.8,-8 -2.9,-10.3 0,-2.4 -0.3,-4.1 -0.2,-6.4 0.1,-1.4 1,-5.1 -1,-5.1 h -0.7 c -1,0 -1.3,1 -1.6,1.8 -0.3,1 -1,1.4 -1.6,2 -1.2,1.3 -2.3,2.4 -3.5,3.6 -1.2,1.2 -6.2,6.7 -7.4,7 l 0,0 z m 37.9,8 c 0,-0.3 0.3,-0.5 0.7,-0.5 h 0.7 l 0.1,0.5 -0.3,1 h -1 c -0.1,-0.7 -0.3,-0.4 -0.3,-1 z m 3.6,-1.8 c -0.2,0 -1.6,-1.8 -3.3,-1.8 h -0.5 c -2,0 -2,2.2 -2.5,3.9 -0.5,1.4 -1.4,3.7 -1.4,5.4 0,0.6 0.4,1 1,1 2.4,0 6.4,-5.2 6.9,-7.4 3.9,0 11.1,-1.1 11.8,-3.9 -2.6,0.7 -2.9,2.4 -8,2.8 1.8,-1.6 5.6,-4.3 5.9,-7.2 h -0.5 c -0.8,3.1 -5.6,7.2 -9.5,7.2 z" stroke-width="3" stroke="none" fill="black" ></path></svg>
