<svg xmlns="http://www.w3.org/2000/svg" version="1.2" baseProfile="tiny" width="120.32" height="222.72" viewBox="53 -67 94 174"><path d="m 60,45 80,0 m -40,55 -40,-55 0,-105 80,0 0,105 z" stroke-width="9" stroke-linecap="round" stroke-linejoin="round" stroke="#f8fafc" fill="none" ></path><circle cx="100" cy="-35" r="12" stroke-width="9" stroke-linecap="round" stroke-linejoin="round" stroke="#f8fafc" fill="none" ></circle><path d="m 75,35 50,0 m -25,-45 0,45 m -30,-75 30,30 30,-30" stroke-width="9" stroke-linecap="round" stroke-linejoin="round" stroke="#f8fafc" fill="none" ></path><path d="m 60,45 80,0 m -40,55 -40,-55 0,-105 80,0 0,105 z" stroke-width="3" stroke="black" fill="none" ></path><circle cx="100" cy="-35" r="12" stroke-width="3" stroke="black" fill="black" ></circle><path d="m 75,35 50,0 m -25,-45 0,45 m -30,-75 30,30 30,-30" stroke-width="3" stroke="black" fill="none" ></path></svg>
