<svg xmlns="http://www.w3.org/2000/svg" version="1.2" baseProfile="tiny" width="209.92" height="158.72" viewBox="18 33 164 124"><path d="M85,48 85,40 115,40 115,48 100,46 Z" stroke-width="10" stroke-linecap="round" stroke-linejoin="round" stroke="#f8fafc" fill="none" ></path><path d="M25,50 l150,0 0,100 -150,0 z Z" stroke-width="10" stroke-linecap="round" stroke-linejoin="round" stroke="#f8fafc" fill="none" ></path><path d="M25,50 l150,0 0,100 -150,0 z" stroke-width="4" stroke="black" fill="rgb(128,224,255)" fill-opacity="1" ></path><path d="m 86,105 h 28  M 95,92 v -9 h 10 v 9  m 0,-5.3 a 19,19 0 0 1 14,18.3  m -5,0 A 14.3,14.3 0 0 1 99.9,119 14.3,14.3 0 0 1 85.6,105 14.3,14.3 0 0 1 99.9,90.7 14.3,14.3 0 0 1 114,105 Z" stroke-width="3" stroke="black" fill="none" ></path><path d="M85,48 85,40 115,40 115,48 100,46 Z" stroke-width="4" stroke="black" fill="black" ></path></svg>
