<svg xmlns="http://www.w3.org/2000/svg" width="200" height="125" viewBox="0 0 200 125" role="img" aria-label="Turn tactical task preview"><rect width="200" height="125" fill="#f1f5f9"/><polyline points="24.84,17.08 15.00,15.00 18.89,22.77 24.84,17.08" fill="none" stroke="#0f172a" stroke-width="1.5"/><polyline points="173.96,15.52 168.96,19.28 163.51,23.04 157.60,26.43 151.70,29.82 145.34,32.45 138.98,35.09 132.62,37.34 125.81,38.85 119.00,40.35 112.19,41.48 105.39,42.24 98.12,42.61 91.77,42.61 84.51,42.24 77.70,41.48 70.89,40.35 64.08,38.85 57.27,37.34 50.92,35.09 44.57,32.45 38.21,29.82 32.31,26.43 26.41,23.04 20.96,19.28 15.97,15.52" fill="none" stroke="#0f172a" stroke-width="1.5"/><polyline points="24.84,17.08 15.00,15.00 18.89,22.77" fill="none" stroke="#0f172a" stroke-width="1.5"/><text x="94.88" y="44.17" font-family="Arial, sans-serif" font-size="9" text-anchor="middle" fill="#0f172a">T</text><g><circle cx="15.00" cy="15.00" r="7" fill="#1d4ed8"/><text x="15.00" y="18.00" font-family="Arial, sans-serif" font-size="9" text-anchor="middle" fill="#ffffff">1</text></g><g><circle cx="173.33" cy="15.00" r="7" fill="#1d4ed8"/><text x="173.33" y="18.00" font-family="Arial, sans-serif" font-size="9" text-anchor="middle" fill="#ffffff">2</text></g><g><circle cx="94.17" cy="110.00" r="7" fill="#1d4ed8"/><text x="94.17" y="113.00" font-family="Arial, sans-serif" font-size="9" text-anchor="middle" fill="#ffffff">3</text></g></svg>
