<svg xmlns="http://www.w3.org/2000/svg" width="200" height="125" viewBox="0 0 200 125" role="img" aria-label="Retire/Retirement tactical task preview"><rect width="200" height="125" fill="#f1f5f9"/><polyline points="15.00,21.31 139.87,21.31" fill="none" stroke="#0f172a" stroke-width="1.5"/><polyline points="15.00,21.31 22.61,15.00" fill="none" stroke="#0f172a" stroke-width="1.5"/><polyline points="15.00,21.31 22.61,27.62" fill="none" stroke="#0f172a" stroke-width="1.5"/><polyline points="139.78,96.23 148.59,95.51 157.07,93.38 164.88,89.92 171.73,85.26 177.35,79.58 181.54,73.10 184.12,66.08 185.00,58.77 184.14,51.46 181.58,44.43 177.42,37.96 171.81,32.28 164.97,27.62 157.16,24.16 148.68,22.03 139.87,21.31" fill="none" stroke="#0f172a" stroke-width="1.5"/><text x="77.48" y="21.31" font-family="Arial, sans-serif" font-size="9" text-anchor="middle" fill="#0f172a">R</text><g><circle cx="15.00" cy="21.31" r="7" fill="#1d4ed8"/><text x="15.00" y="24.31" font-family="Arial, sans-serif" font-size="9" text-anchor="middle" fill="#ffffff">1</text></g><g><circle cx="139.87" cy="21.31" r="7" fill="#1d4ed8"/><text x="139.87" y="24.31" font-family="Arial, sans-serif" font-size="9" text-anchor="middle" fill="#ffffff">2</text></g><g><circle cx="77.43" cy="96.23" r="7" fill="#1d4ed8"/><text x="77.43" y="99.23" font-family="Arial, sans-serif" font-size="9" text-anchor="middle" fill="#ffffff">3</text></g></svg>
